<mxfile host="app.diagrams.net" modified="2023-06-18T17:52:51.307Z" agent="Mozilla/5.0 (Windows NT 10.0; Win64; x64; rv:102.0) Gecko/20100101 Firefox/102.0" etag="6ilVPdYDErzC_9CerHCI" version="21.4.0" type="device">
  <diagram id="R2lEEEUBdFMjLlhIrx00" name="Page-1">
    <mxGraphModel dx="1314" dy="727" grid="1" gridSize="10" guides="1" tooltips="1" connect="1" arrows="1" fold="1" page="1" pageScale="1" pageWidth="1200" pageHeight="1920" math="0" shadow="0" extFonts="Permanent Marker^https://fonts.googleapis.com/css?family=Permanent+Marker">
      <root>
        <mxCell id="0" />
        <mxCell id="1" parent="0" />
        <mxCell id="xRkAMs9unRZzOuT88SSD-65" value="" style="shape=image;verticalLabelPosition=bottom;labelBackgroundColor=default;verticalAlign=top;aspect=fixed;imageAspect=0;image=data:image/png,iVBORw0KGgoAAAANSUhEUgAAAWQAAAJ5CAYAAACZu0r4AAAgAElEQVR4Xu3dB3wURf/H8V8KhE5AQSmC2Dti7wUrKj4W9A92BQUUEHvvDVRsKNgrdrFiBXvBgmBviA1RQOkQ0vOf3x572VzuchPIhMH7zOv1PMJlbnb2PZvv7c3OLlkVX75dIRQEEEAAgZUukEUgr/QxoAMIIIBAIEAgcyAggAACnggQyJ4MBN1AAAEECGSOAQQQQMATAQLZk4GgGwgggACBzDGAAAIIeCJAIHsyEHQDAQQQIJA5BhBAAAFPBAhkTwaCbiCAAAIEMscAAggg4IkAgezJQNANBBBAgEDmGEAAAQQ8ESCQPRkIuoEAAggQyBwDCCCAgCcCBLInA0E3EEAAAQKZYwABBBDwRIBA9mQg6AYCCCBAIHMMIIAAAp4IEMieDATdQAABBAhkjgEEEEDAEwEC2ZOBoBsIIIAAgcwxgAACCHgiQCB7MhB0AwEEECCQOQYQQAABTwQIZE8Ggm4ggAACBDLHAAIIIOCJAIHsyUDQDQQQQIBA5hhAAAEEPBEgkD0ZCLqBAAIIEMgcAwgggIAnAgSyJwNBNxBAAAECmWMAAQQQ8ESAQPZkIOgGAgggQCBzDCCAAAKeCBDIngwE3UAAAQQIZI4BBBBAwBMBAtmTgaAbCCCAAIHMMYAAAgh4IkAgezIQdAMBBBAgkDkGEEAAAU8ECGRPBoJuIIAAAgQyxwACCCDgiQCB7MlA0A0EEECAQOYYQAABBDwRIJA9GQi6gQACCBDIHAMIIICAJwIEsicDQTcQQAABApljAAEEEPBEgED2ZCDoBgIIIEAgcwwggAACnggQyJ4MBN1AAAEECGSOAQQQQMATAQLZk4GgGwgggACBzDGAAAIIeCJAIHsyEHQDAQQQIJA5BhBAAAFPBAhkTwaCbiCAAAIEMscAAggg4IkAgezJQNANBBBAgEDmGEAAAQQ8ESCQPRkIuoEAAggQyBwDCCCAgCcCBLInA0E3EEAAAQKZYwABBBDwRIBA9mQg6AYCCCBAIHMMIIAAAp4IEMieDATdQAABBAhkjgEEEEDAEwEC2ZOBoBsIIIAAgcwxgAACCHgiQCB7MhB0AwEEECCQOQYQQAABTwQIZE8Ggm4ggAACBDLHAAIIIOCJAIHsyUDQDQQQQIBA5hhAAAEEPBEgkD0ZCLqBAAIIEMgcAwgggIAnAgSyJwNBNxBAAAECmWMAAQQQ8ESAQPZkIOgGAgggQCBzDCCAAAKeCBDIngwE3UAAAQQIZI4BBBBAwBMBAtmTgaAbCCCAAIHMMYAAAgh4IkAgezIQdAMBBBAgkDkGEEAAAU8ECGRPBoJuIIAAAgQyxwACCCDgiQCB7MlA0A0EEECAQOYYQAABBDwRIJA9GQi6gQACCBDIHAMIIICAJwIEsicDQTcQQAABApljAAEEEPBEgED2ZCDoBgIIIEAgcwwggAACnggQyJ4MBN1AAAEECGSOAQQQQMATAQLZk4GgGwgggACBzDGAAAIIeCJAIHsyEHQDAQQQIJA5BhBAAAFPBAhkTwaCbiCAAAIEMscAAggg4IkAgezJQNANBBBAgEDmGEAAAQQ8ESCQPRkIuoEAAggQyBwDCCCAgCcCBLInA0E3EEAAAQKZYwABBBDwRIBA9mQg6AYCCCBAIHMMIIAAAp4IEMieDATdQAABBAhkjgEEEEDAEwEC2ZOBoBsIIIAAgcwxgAACCHgiQCB7MhB0AwEEECCQOQYQQAABTwQIZE8Ggm4ggAACBDLHAAIIIOCJAIHsyUDQDQQQQIBA5hhAAAEEPBEgkD0ZCLqBAAIIEMgcAwgggIAnAgSyJwNBNxBAAAECmWMAAQQQ8ESAQPZkIOgGAgggQCBzDCCAAAKeCBDIngwE3UAAAQQIZI4BBBBAwBMBAtmTgaAbCCCAAIHMMYAAAgh4IkAgezIQdAMBBBAgkDkGEEAAAU8ECGRPBoJuIIAAAgQyxwACCCDgiQCB7MlA0A0EEECAQOYYQAABBDwRIJA9GQi6gQACCBDIHAMIIICAJwIEsicDQTcQQAABApljAAEEEPBEgED2ZCDoBgIIIEAgcwwggAACnggQyJ4MBN1AAAEECGSOAQQQQMATAQLZk4GgGwgggACBzDGAAAIIeCJAIHsyEHQDAQQQIJA5BhBAAAFPBAhkTwaCbiCAAAIEMscAAggg4IkAgezJQNANBBBAgEDmGEAAAQQ8ESCQPRkIuoEAAggQyBwDCCCAgCcCBLInA0E3EEAAAQKZYwABBBDwRIBA9mQg6AYCCCBAIHMMIIAAAp4IEMieDATdQAABBAhkjgEEEEDAEwEC2ZOBoBsIIIAAgcwxgAACCHgiQCB7MhB0AwEEECCQOQYQQAABTwQIZE8Ggm4ggAACBDLHAAIIIOCJAIHsyUDQDQQQQIBA5hhAAAEEPBEgkD0ZCLqBAAIIEMgcAwgggIAnAgSyJwNBNxBAAAECmWMAAQQQ8ESAQPZkIOgGAgggQCBzDCCAAAKeCBDIngwE3UAAAQQIZI4BBBBAwBMBAtmTgaAbCCCAAIHMMYAAAgh4IkAgezIQdAMBBBAgkDkGEEAAAU8ECGRPBoJuIIAAAgQyxwACCCDgiQCB7MlA0A0EEECAQOYYQAABBDwRIJA9GQi6gQACCBDIHAMIIICAJwIEsicDQTcQQAABApljAAEEEPBEgED2ZCDoBgIIIEAgcwwggAACnggQyJ4MBN1AAAEECGSOAQQQQMATAQLZk4GgGwgggACBzDGAAAIIeCJAIHsyEHQDAQQQIJA5BhBAAAFPBAhkTwaCbiCAAAIEMscAAggg4IkAgezJQNANBBBAgEDmGEAAAQQ8ESCQPRkIuoEAAggQyBwDCCCAgCcCBLInA0E3EEAAAQKZYwABBBDwRIBA9mQg6AYCCCBAIHMMIIAAAp4IEMieDATdQAABBAhkjgEEEEDAEwEC2ZOBoBsIIIAAgcwxkFJg4eIl8ve/c6SgsEg6rtFG8ps3kwa5uYglEagwrxUsXRr/SdPGjevNqaKiwoxRYbC9rKwsadKoUb1tmw3VrQCBXLeetW6tuKREJn33k7z+0WeSk50tu221hWy72UbStPHK+6X6/e9Zsvb+vZPuS58ee8ljwy6u9X6uqm9os8ch8u+8BXLbeUNk8FGHptyNXmddJmMnvBf8/LIBx8vlA0+ot12e+e9cabfX4cH21unYXqa9/Gi9bZsN1a0AgVy3nrVq7ZQrRsg9z45L+p6tNl5fPn3sziCk67MsLlgqzXc8IOUmn7/lavnfnjvXZ5dW2rbe/myKdO93Znz7FV++nbQv8xYukta7Hhz87JDuu8hzN19Vr30mkOuV2+nGCGSnvKkb3/SwE+S7ab/XuPXWLZvLnPderNceHnvhtTLm5fHBNlu1aC5/vP6kNGsS+/r9zPh3Zedum0m71Ver1z6trI3pVEDDrfeR0rIy2aBzR/nxxUeSdiWr657B6103XFe+eOreeu8ugVzv5M42SCA7o03d8PiJk2TfAecEFXJysmXauMekc/s1gr/rGeqa3Q+TJUtjc4JXDTpJLj752HrrpQZQSWlpsL0fXnhYNlx7rXrbNhtaPgECefncfHwXgbwSRiU8o9JNv33fzbLHNltW6cUPv/4hGx9yfPy1xK/KGphvfDRJ3p/ylZnSyJF9d9xGdt16C8k2F3Si5eOvvov/dYctNglC/tGXJ8iPv/0RzFP32md3yc3JCerovPHf/8yRHY89Lf6el0ZeK6vntzQfFmuas+LWEm1v+803Di4gRcubn3wur334mazWsoUcc9A+0r7N6vLpN98HVXROfPP11wn+nNivmvqsP/t66i/xD6htN91QZs2dJ6OefEGaN20i553YJ/72X/78W15+b6L8MuNv6bRmW+m5+06yXqcOKUf4czN3//L7H8uiJQWy/eabyIG77SCN8xrWaJjY2Gff/mC2+bHpX5Ex3VAO2m1Hc1Etr0q1n36fLnMXLApe28b0X93GvTtR3pv8pXRp306OPnDv4NuIbdFtPjvh/cD0xEN6BNNaNc0hl5dXyAfmWNHrFOXmrL/7dt3M/7aqNh2mzlse0U/WNGP9u/lmFB4btv2i3ooLEMgrblirFjQUm+3QI/6eVPOSLXc+KF5n/ofjJIy+B194TU68dHjSbb5z/y2y+9Zd4z+LBv8zN10hvc68rNr7lnzyanBV/vxb7pbhDzyetN1bzxssQ446TKLtlUyeEP+F1bP6ljsdGPyyR8vQY3rJLWOeCV7qttH6MvnJu4M/R9tJ3P9kP9umT3/R8NTyxl03yr79z67iV1ZeLnnb7CtlZmohsWjQzXnvhSofHtEzysT6t51vLt71qbx4l6qvv82YKV0OqPwwiLajHxLDhp4Sf+mo86+Wx199M/j7hLtHyN6nnFWtn4ljl+qgyt1qL7Of5VV+fPrRh8utj44NXku8qPfZtz/KdkcNSNrcxEfuEP2gDkv+LgfJgkVLgr8OP6O/nHtC8gu7qfrG6ysuQCCvuGGtWpg+c7Z02u//gve0NmeSGha2ZcLHn8s+kTDSZWi6SkOXpYVFz2z07FBLNEz073rGo+/5d/6CeP3tzJnyJ4+OlutNGN89dpxMm/5X/Gft2qwWnO1dcspxcvzB+6UM5Ebb7itFxSXx9+mZ8V///Ftlt+oqkBOtNNBzuu0l5SaUtXTp0E42XqezvP3pFFlaFHPZuEtn+e75B4M/l5aWSYOt9443k9egQTBHPmfBwvhrHz40UnbacrNqhuGHh35D0amdsOTm5kir5s3ln3nz469d0PdouXZIv+Dv0UAOxsWcIa+5WiuzpHBuld1J9eEcVtq810nyzdRf4+9p2zpfZs+t3Kb+IBrIM+eY1RfdY6svtOgZtZ5NLzTfCMIy9/0X42fne/QdKu9O+jL40VfP3G++0XSp0j/+4l6AQHZvXGULH0z5WnY9YUjw2lomOPWimW2Jzu9GpzrueuYlGXDVTfFmwl/saCBf2O9ouWZwLCCm/vGnbNCzcl46GgTR9+gFRb2wGJZkZ8gfffGt7Hz8oGrb1hc67HOE/DU7Fsx1GcjDh/aXw/beVeYvXCxbb7KBZG/ZPdiGhmvhpDeCPyeGZriPF428V669N7YsrPf+3eXx4ZcEf37v8y9l95OGBn/WD615H7wU/DnZGXKn/Y6U6TP/CX5+wv/2lweuPC/481+z55h97lXNIhrIOm3z1TP3BXX0zD7XfJiEZe77L5lwbBb/e+Ifon1ZYL41tWjWNKiypwnSd5YFaTSQu/ToI7/9NTOoc9PZp8oZxx4R/Pn5tz+UQ4fGli4esOsO8vLt18U39Yc5YWjbKl8aJUzdpOwUP6hTAQK5TjnTN/bmJ5PjX1nXNnOzv76afJogsaXo2uC8hiZ4PosFT1j0K7ueLWsp/nyCuYEjp9ZTA/re2gaynu3rWb+WcSOvC+Zhw/Le51+ZkDs9+GtdBfJb994ke27bLT10wr4k+5Aq/nx8lRtdkoWv7Wthhzb633Fmjn568NcXb7smmMeOBvK9l58jfQ+tXFYY9ft53KOy7lrtk+6bzruH8/t6Rr9o4ivxer+a6ZN1lk2fhIGc6gMpfFNN00ZWuFRyIkAgO2FN3Wj0F0vvfpv+xlNWPbjvuVek3+U3BHVPPvwgufvSqvOQa+17pPw5K3bWpmd3epZX27na5QlkXX+r63C1lJgPAv367jKQpzx1j2y54XrVzL744We56u6H5dk330/qmSyQ000RJHrYtPH4q2+ZAI6tQz5gl+3l5TuGVQnkZ0ZcIYfvvVu8j+sddHR8muinlx6R9Tt1TNr/c266U258KPZt6oYzB8jZx8emvbQkW2Xx8/QZsv5Bx8TrbLPJhlXanfTdj/G/2zgk7RQv1rkAgVznpDU3GP3l0VUCCz962aoHOsd7nrnwpuWCvkeZ+cmTq7wv+vV02suPmbnEdvUSyC3MTSSLzEU9LaWT3wyW8YXFxRnyjy8+bNYEV12Kp0sIdSlhTcUmTJO9v7ZnyNGbSXbZanN5/4Hb6iSQjzz7cnnarAPX8tiwS6RPj9g0TapA/sqsmOjaq6/VsUUgWzHVSyUCuV6YKzeiF7/0IlhYUv0yJAbB0+PfkSPPviJ42xH77i5P3XB5lZ6336tX8NwJLUs+eS24GFcfZ8ir7/a/+AWxxCmA+ghk/Vag3w606HM2tA9hqW2Y1kUg63K80669JWjquJ77ykNXX1AngXzFnQ/J5aMfDNqNXjBMFch6cVbPvrXoUr7Pn7wn5ZG+cZdO9fxbwOZSCRDIK+HYiK4K0AtU555YdXmR3hF3hDkjCn+ZCj593axzXWqWy1XOPSYGeU637malQWzZWekUc6ZqrqbXRyBvf/RAs9b4h2C755hlUteb5VJhic6X19UccuIZ8jEXXhOsrdby8DUXyrFm/XNYku1/o233MytCioMqs956Vtqa1Q5haRhZfaHz8FqStZFjLiKGS/wSx6HZjj1kSUHspp6vx94vm63XpU4CWVetdNg7dlFOV2mUf/FWvN/TzPTEesumJ8I55MQLhnqxUy96RsuiggJp3qRJldf4y8oVIJBXgr9e9NGLP2G5tP9xQZhlmxC98+kX5awbR8V/pg/y0Qf6aInOE+vV/fvN1X1dnxxdrqRL1f6aEFv7Wx+BvMA8ES4/smY6XNuqy8j07Dks0UCOrqUd1PtQGXnBkGBt7X4DzxEN8bCEYRddh5wYyNFVE9FVK6OeMmeq18TOVLWEbT35+tvS+9wrg9d0Dl8fxNPQBNWldzwQzEFrWd/cJv3Tstukkxn2Pu9KefK12HMtOrRdPVgpo2N3/YNPyHk33xW8rm0WLVvxEb2ot7xzyNqmribR27m1jL74DBlwxMHBnZ1r7HlY/Glv0VUWukRSl0pq0Zt1vjSrO7S/+i1t4DU3ywPPvyr/vPO8rN6qZVBn7AQ9EbhCWpiptJnmw4qVFvHDp97+QCDXG3XVDV1w6z0y7P7Hatz6vjttK6+Pvj5eZ55Z5tV61541vidcYaGV6iOQgwDreYz8/MeMGvsVDWR9VoY+MyNdsQlkDahw2VtN7ekZZXhnoZ5pJq6Tjr539jvPSRuz9Ksmw2Q3aETbmGymCLptFLv4WFeBPNwcL+eb46amEg1kXWmhNyEVl8RuhU9W+h12oNxzWexGm+j1gKsH9ZWLTq68KJhurPh53QgQyHXjuFytRL/SJzbw8DUXmK/flXPN4c9nzZknmxx6fPxW3PD1zu3WkO+ff0gaR27bra9A1j7oGl5dyxsWnTLRs8FDz4it840Gsv49+rjK8D16q3bPwRfG27AJZK381U/TpKu55Tdaeu6+o8w0Vp8tm06JLjfTqZ3/nX6RjDO3WUeLruv9/rmHpH3byocn1WS4y/GD5cMvvqnSRsMGueaOxHtk03XXjr9eV4GsDZ49YrSMeLhyZY5+yATfGpatK0+8U0+/efQxqz6efuOdaseorp/Wb1ph0WsUeq1Ciy7H1GWZlPoVIJDr1zvp1vRZCnpBLisr2zxHoJXVvN5Sc3fedHNBSx8nob84Pjw4vsisg/7VPE9C18nqdIAGhwaIFr2RY+yI2FRBWPTM7fe/ZwZ9r4tf/hmz/zFf4Qtl7Q5rVpsvTQavd/fp+m5dv92hbZv4U+1qc0joGfqv5tkZxeZsVJ+C13LZzRq1aaO2dXWbU803Eg1/Wzd9j64X17s6V8tvEf8GkLhtvXVa7+iLLl+sbf+ov/wCBPLy2/HOZQJ6AanHqefJG3fG1klr0bNQvdAYlqnjxsh6a6V+0A+YCCBgphnN18KqT4RBBYFaCkRXLmyxwbrBQ36+nfZbvJWV8VznWu4C1RHwQoBA9mIYVu1O6JPMdJ40WdF5Wb1zMPHRoKv2HtN7BNwIEMhuXDOuVZ2P/ejLb2XMuPHBUix9WpreIrxGZJ1vxqGwwwjUUoBAriUY1RFAAAFXAgSyK1naRQABBGopQCDXEozqCCCAgCsBAtmVLO0igAACtRQgkGsJRnUEEEDAlQCB7EqWdhFAAIFaChDItQSjOgIIIOBKgEB2JUu7CCCAQC0FCORaglEdAQQQcCVAILuSpV0EEECglgIEci3BqI4AAgi4EiCQXcnSLgIIIFBLAQK5lmBURwABBFwJEMiuZGkXAQQQqKUAgVxLMKojgAACrgQIZFeytIsAAgjUUoBAriUY1RFAAAFXAgSyK1naRQABBGopQCDXEozqCCCAgCsBAtmVLO0igAACtRQgkGsJRnUEEEDAlQCB7EqWdhFAAIFaChDItQSjOgIIIOBKgEB2JUu7CCCAQC0FCORaglEdAQQQcCVAILuSpV0EEECglgIEci3BqI4AAgi4EiCQXcnSLgIIIFBLAQK5lmBURwABBFwJEMiuZGkXAQQQqKUAgVxLMKojgAACrgQIZFeytIsAAgjUUoBAriUY1SsFnnjtLdlig3Vkk3XWXuks2pfcnBzptc/uK70vdACB5RUgkJdXrh7f99203+WOJ5+TI/fdU3bfpmu1LU/88lsZ8/J4ufXcwZKbm1NvPet/1QjpvV932XO7bvW2zVQb0r7kNWggt50/ZKX3pb46cPaI0bKksFBGX3RGfW2S7TgWIJAdA9dF899O+01ue2xs0NTtF5wuDXJzqzT74RffyMMvvW5+NtT8jECuC/NVoY3xEz+XNyZ+JjecOWBV6C59tBAgkC2QVnaVaCA3bdRIbjrnNAI5YVAy8Qx5ZR+XbL/uBQjkujet8xbDQD76wH3kUTM1ccrhPWXrTTaIbyfVGXJxaamcecMdUmL+m2Vqn9r7MNli/S7x9y1cvETOuflOufHMU+W9z7+UF9/9MPjZwbvvJAfutqOUlZfLhbfdI/MXLQ5ev3pQX2nTKj/+/nDKolXL5jL6qReC13fuupkcd/B+8TolJaUyaNitclG/Y+W1jz6Vz7/7UW44Y6C0aNYkqLPA9OGikfcGfWzauJFcddpJ5r+NazQsN/26INKvkeZbw+Drbq02ZVFRUSH3jB0nn3//U9DeUT32TjrlE27st79mynX3PWo8BkrzprH+abnyrodkxux/5a5Lzoq/VlBYJGfccHv872cee6RsuPZaVWw6tVvD7PcxkfcUmvfcIYl135/8VTDlpKWZ2fdrBveTRnkN4+8714yROg0b2l/Ov+WuYCzvNH3RtopLSuSOC4dW8dIprAdffC14rW3rVnLZgOOD+XWK/wIEsv9jJGEgDzv9FLn9iefkz1n/BL+E4S9ZskD+659/5Yo7H5Im5oy6T4/uJgh/ki9+/FnWXL21XDHwxGCvw0DWP6+5WutgLnj8xEny7/wFJvA3DMJz+803kbXWbCsvvP1BEJpXD+pnQrll8H4NZC0NzdztYd13lR9+m262MVVycrJl1IWxec0wkBuaaZZyE5ANG+Sa0O0rzZo0lg+mfC2PjHtDOpn2991pO3n2zfdk7oKFQf+0n8mKhuyAq2+S7OxsOWDn7aWgqEje/nSyVJjK0TnksrJyOfXamwOjow/YR6bPnC1vfTZZ1unQXs47qU/Stm0DWcNZQ3r1/HxzEXE3mfDx5/Lz9BnSbaP1ZcARB8dtbAL5/FvvDj7wDt59Z+m4RhsTpK/KkqWFMtyEb37zZkFbYSDrnxvn5Ykm8i3nDEoayGffdKcsXrIkGLeNu3SSx157U4qKS+TS/sdLh7arrwJHe2Z3kUBeBcY/GsitWjQPAmm1li2CMyktyQJZw1LraoiH5e9/5sjldz4YnK12atc2Hsg9dt5ODjGBGpbhDzwmv/z5t1xyynFBSIRF29xpy83k+J6xM2D9u4bxyMiFtHkLF4mGTBgoYSC3N2FwmQmFsJSWlclp194iPUyoHtJ9l/jr+l4NkJsTpmXCCpeOul9mzZknoy8+U7Kz9FwxVhKnLM4yF7yKiouDOfew/PT7nzLi4SeTzsNrHdtAHjL8tqCP0TPme599WT779of4a9qfdIGs43HtfWOCsEz85rHFBuvKaf93SND1MJBHmYt3OeaDKCyJZ8g//PqH3Dzmabn+jAHSslnTeL1L7rhfZs+dV6W/8R/yB68ECGSvhiN5ZxIDeeJX38mDL7wqZxxzhGxkzoISA3nh4gIzFTE66S+gBkW71VeTyweeEA/kC83X6s7m63VYnnr9bXnTnHVGA0d/NshMC2hw6FfgMASTrbLQbejZmAZNGMhDj+4lG6/TOb6N9z7/Sh59ZXy1bbxvzprHmLPmxG1Hg3fjLp1l6DG9qmBFA1nPxAeaD62DzLRLTzP9Ei1a74h99pC9d9i6GrZtIJ81YpQsLlgarOjQs/JkxSaQUx16Z954h2RlZcuIswZWCeREk8RA1m3qVItOuURLeEZ/5aknyRqrtVoFjvjM7SKBvAqMfWIga5d13lWnFvSs6WMT0NFVFu989oU8br6qJgu1gdfcbL72NpSbzj4tZSA//cY7MuGTz6u9f/Cw24Izcw3zdIGsc6C6DC9VID9kVoV8ZFaHpCrJVpOE2zzpkAPMV/KNUwZyoTkzPn34yJRtb7fZxtL30AOWO5D1jRqaOrWgZZdum8uh5huGTsNEPzjSnSFrXW1Dpz/Cefrw/c2aNFmuQE7cpran0zkDTFifeEgP2cFMZVD8FSCQ/R2beM+SBXI4l7rWGm2Dud9oIH9gLhI9Yi4SJQtkPYvS4Bhx1qlOA1lD/5aaAtlcdPrIXHy6oO/RSUdAgyU6JRENuhMO3l927Lpp2kA++fCDzDxvbL47WvTiYXSKIPyZ7RlyWF/H4OX3PzFz4V+JTtVsvfEGckqvnsGPbc6Qi80Fz8HmgudGesZ/9OHmrDg2BbMiZ8g633/xycdW2d/wG0O/ww6SbTfdcBU44jO3iwTyKjD2yQJZuz3h40ny9Ph3Zdetusr7k7+Mr0Neai50Db3+9uDCml5gi5bodEJ4US9xyqIuzpA3WruTnHHsEWmnLEZfZOaCsyvngtMNh05FdDQfQhedXLl6ITKposoAACAASURBVAzA8KKersLQbwJ7bttNeu/fPV2T8Z9PnzVbrr77kWpzsImrLOaYC4/NzRmsXqAMi170fOWDT6rMISeGY4G5iSO6yuL5tz6QVz+sfE/Y1vIG8hDzDUbH+2ZzwS9afp3xtwy7/zG5zlxPaG2uK1D8FSCQ/R2beM9SBbJWOPum0bJoSUFQN3pjiAavXpG/5dzKX84vf5wmo556Xq4dfLKslt+iTs6Qdbt3mgts4dnd5O+nyl3PvBhc6NMLfqmmLHTFhs5JJ84HLzT7MunbH6V7irv/bn7kabOa4w/T/unxQFxqlqANNUvQoqsswgthURP96j7qyedlQK+Dq31Q6X6EZ6y6UkJXTGjRs+AhZvpDl5eF3zj0ouq6HdvLOSf0jo+RLq27+5mX4nV0ekc/aHTaJixvfTpFnnz9rfiyt5fe/UjGvTcxmD7Ss3YtOg2l01G6Oia8sBnuS7o55N//niXX3jtGzjvxKFmnY7v4dvWOviLT/+jF11XgsM/ILhLIq8Cw1xTI4fKuxEAOz341KPVM8ec//pQ/zNKv6NKsujhDXq9Tx6Dt7c28rAbCzDlzg5UZukJDS6pA1p99+s33ct9zr0hewway29ZdZcasf+W7X36TPbbZ0izV2yvlyOjqDF2l0dWsRCg0qx1+NAGtJXHZ2+nXjwyW6ukSMA28t8yFykYNzdz2eZUhmbiRc8063wVmGZpeLG2Y20C+mjotuB29tLQsHra6hPDusS+ZKZVsc3FwK/nj79nBh4S+Ry+0avl1xkxzVvpo8KGxzSYbyZQfppq53AopLCqOB7KG/almX/SMfkPzjUJXXSw0S9b0TkztdxjAtoGs2w0/sHR5X+f2a8jbn00J1i3r2bGuuqH4LUAg+z0+Qe+mz/wn+Gp79AF7x8+kot1+w6wd1vlPvVAVXRalv/C6HEvPuvQiW6+9dw/WFIdFzyx1rvmwvXatMteqNxZ8/fOv5gaUg6ro3P/8q+aremM5Yt89gtfvNjdd6IqFxUsLRKc5NLR22nJzc5Frs/j7NDj1fQfusr10iCyhi/ZBb4rQPuoZ/ZH77Snt26yWdlTGjBsvOsWgy7sGmuVhegOI3jZ+4v96VHnvm59Mlsnm7FXnUbdYfx3pYfqRroyd8K5M/X2GMWsgRxlzneuePXd+FQ+9MeSB518xAVpgPlAaysF77CTrrdWhStMz/51rVpJMCD48dE3wwXvsHJgdtNsOZh9ja4I1jB944bVgWZpOJ/Q77EBz1vyxzDJ/D/3VR7eXOB56YVTNEy9QTjNrol9458NgaV6Htm3kmIP2STofn86Bn9e/AIFc/+ZsEQEEEEgqQCBzYCCAAAKeCBDIngwE3UAAAQQIZI4BBBBAwBMBAtmTgaAbCCCAAIHMMYAAAgh4IvCfCuR3Jn0RPAksdvd+ePdX+Ofof0P96B1iyd4THaXl+XmqbSb2SbcTbT/cLtuMSdRmPP9rttFjIXrcutxP221qH7Qk3mm5PMft8m1zDfO85z223dKTOF3xbvynAlmfeavrNSkIIJAZAk0a5VVZW7+q7/V/KpBX9cGg/wggkNkCBHJmjz97jwACHgkQyB4NBl1BAIHMFiCQM3v82XsEEPBIgED2aDDoCgIIZLYAgZzZ48/eI4CARwIEskeDQVcQQCCzBQjkzB5/9h4BBDwSIJA9Ggy6ggACmS1AIGf2+LP3CCDgkQCB7NFg0BUEEMhsAQI5s8efvUcAAY8ECGSPBoOuIIBAZgsQyJk9/uw9Agh4JEAgezQYdAUBBDJbgEDO7PFn7xFAwCMBAtmjwaArCCCQ2QIEcmaPP3uPAAIeCRDIHg0GXUEAgcwWIJAze/zZewQQ8EiAQPZoMOgKAghktgCBnNnjz94jgIBHAgSyR4NBVxBAILMFCOTMHn/2HgEEPBIgkD0aDLqCAAKZLUAgZ/b4s/cIIOCRAIHs0WDQFQQQyGwBAjmzx5+9RwABjwQIZI8Gg64ggEBmCxDImT3+7D0CCHgkQCB7NBh0BQEEMluAQM7s8WfvEUDAIwEC2aPBoCsIIJDZAgRyZo8/e48AAh4JEMgeDQZdQQCBzBYgkDN7/Nl7BBDwSIBA9mgw6AoCCGS2AIGc2ePP3teRQIVpJ6uO2qKZzBUgkDN37K33/J3PvpBn33xPikpKgvc0adRILu1/nLRq0dy6jf9axbNvGi2LlhRIbk6ODOpzqDw74X1ZVFAgw04/5b+2q+xPPQoQyPWIvSpu6pp7x8gff8+SHTbfRI7Ydw8pKS0VfU3D6KJ+x0indms42a0vfvxZ7h77ktx67mBpkJvrZBsr0mj/q0bInRefKUXFJXL69SNNH3Nk5PmnS1YW58kr4prp7yWQM/0IqGH/P/3mB7nvuZfl7OP+T9bv3LFKzfNvvVvmLVwkd11ylhPBKT9MlTufflFuv+B0LwPZyU7TaMYLEMgZfwikBjh9+EgpLC5OGrp/zZ4jV9z1oNx45kBp3rRJvJGpf/wpNz70ZPD3po0byY1nnSrZkbPG1z/6TJ4z0x93miAf/dSL8sWPU4O6lw84Qdq1WS348wBz9qlzslrC802t//tfs+S6+8bIbeZM9JLb75P5ixcHZ6nhWem5N98lC8xrWnrv31323LZbtZ0b995Eeendj4LXO67RRi4+5bhqc79zzQfNxab9srIyaW2mZa4a1DeYmgiL9u/iU44PzoovHXV/8PJm63WRwX0Oq7a9B55/TT7++tvg9U3X7SJDjqpeJ/UI8JNMEyCQM23Ea7G/+rV8j226Sp8ee1u965Lb75fZ8+bJhp07yc5bbioPjXvdhFq5nHN8b1mvU4egDQ1knY/W0tlMd2y32cYy1vy9vLxcLjOh3N6E8tg335fZc+fJF+Ysee8dtpHs7Gw5fK9dg0C+1gSyBrCGvP5Xz6CLzTTKkGG3BWfS/Xv1lB9/my7jP54k+c2byfCh/eN9H2zqlJh58IN23yn4EHni1TelvKJCRl10huSYbWh5evy7MsG8d/21OsrO3TaXJ157M/hQuvmcQWbuPC+ooy5rt19T/pg52/RrN/lm2q/y/S+/B23qB5QWbXfg1TcF/Tyu536Bw5hXxkuFed3VtwqrQaKS1wIEstfDs3I7p8HTa+/dZZ8dt0nbkSVLl8qZN46Sq0/rK21a58frX3X3I/LnrNnxEAoD+YKTjpa1O6wZr6fb2nazjaTfoQcGryWbsggD+agD9pbdt+4af++g624N/qzhHJYvf5wmo556Pr7dBYsWy7m33CUXmnlv/SAIS/Chs+2W0mf/vaTYhLWGdr/DDpJtN90wXmeI+abQqGFDuf6MWLjre3JysmXUhWfE64yd8J68MfGzKvv5wjsfmjpD43UWFyyVs0aMkgFHHCzdNlo/rSkVMk+AQM68MbfeYw2eI/fbU/babqu07xl6/e2ytKio2tmfvqY/O+/EPrJOx/bxM+TEs0Td1rprdZBzT+idNpD1Ql+jvIY19knnt3WeO9xOQWGRnHHD7bLX9lvLkebiZLLy4AuvycSvvq22D4+/+pa8M2lK/HXt64kH95Adum4Sb0bPlq+555G0Z7/63kP23EV67LJ9WlMqZJ4AgZx5Y269xxoeh3bfVfbfebu079GzVF2BkezruLazj5l66LXP7jUHsgnsc01wa6npDDlZIH/y9fdy//OvVOtntD/jJ06SZya8G9RpnJdnzlR7yoZrd4rPQd/w0BPy8x8zUu7raDNfrVMQyQJ5uvkWcLX5NhDd3sw5c+WyUQ9Ua49ATns4ZWwFAjljhz79jmvw6Fdr/YqdrGjgtMnPD76+Dx52q/nKnzqQ9YxQgyicskh6hrycgXzro2Plu19+kwv6mmkQM7erJfEMOdr/X/78Wx43c8N/zvonmLsO54dveNAE8vQZ5mz+qKT726Vju+ACoE0g//rXTBl236Ny4K47yMF77BxvjzPk9MddJtcgkDN59NPs+9XmK/h081U82Vnvx199Jw+88Krccu6g4GzzPDM/O9/M0ybWXbK00Mwt3yGXmNUMuqrBRSBryO3UdTM5/uD94nuUbMpC54j1Ql+06HvDFRIPvfiafPTlt1VWbiQjsgnk0669JVhlcv0ZA6ptjzNkfulSCRDIHBspBf6Zt8As/7pX9ttpWznMrCYIi64U0Itfusph5PlDgpf1Bokhw2+ToUf3ko3X6Ryve+HIe4Oz1dFmJYMW20D+euovcvsTz8lt5w2RvIYNgveGF/USpyw0IJs1biwjzj41vl1deqdL8MIPiE+/+d6sqX6lSntaWd+7+frryKDeh0o4z7y3mWfWm2DCMs980MwwZ9Ma3OF7EueQE6csdMmgTuHoCo6waNhr6OsZs545UxBIFCCQOSZqFHjjo0lmGVps3nXHrpvK/IWL5ftffw+WomkwNmxQeRfd6KdeMOuKf5b2bVeXLdZbR1776NPgfZf2P146mNdqE8hLi4rNxcCRwW3aG5ibUgYe+b+UgTxm3Hh5f8pXwbK3jbt0lq+mTgtu69YPguvMrcy6lliLrgLR1SBbbrietG3dSt76dLKUmrXGujQuPHN+4e0P5JUPPgkCfnez+uIns4ROg/3g3U2I7hYLUZsz5FlmOudSM3+sH1pbmMD/dtpvwdI6vf181622kGMO3IcjD4FqAgQyB0VagUITjnrBbM6ChUHobWOWhOlZZLLy1z//ypiXJ4i+p3WLZnLq/x0ShHdYJn//UzAtoGek0aJnw2uu3jpYZhcWPUvWpWN5DRrIOWb1xey58+WpN96WUw7vWeWDQOt/ZwJP6+qc8L47bitbbbKBufHkBdlknbWl+3aVN4joczl0JUWZqddu9dXkBDPNkRO56UPb0qkXPZNduLhAGpu1x30PPaDKczu0r7r/G3XpFO/rv+bbxBOvv1Vlvxaa28vvfualYPXJ+p06Bjer6Hubmg+ZEw/pkdadCpknQCBn3pizxwgg4KkAgezpwNAtBBDIPAECOfPGnD1GAAFPBQhkTweGbiGAQOYJEMiZN+bsMQIIeCpAIHs6MHQLAQQyT+A/FcgffvG1WRq1wIxi+C+cLe9/l+dAWN5trci/xrYqbjPT9ndlHEuZY9ymVSvZpdtmy4Ps5Xv+U4H8m3l+gN6qax46a55sbp46sML/TTFm+kCDFW47VR9N20H7CdsOX3O97WS7/F/cJsbLjrO6+l1JbKd+juOmTRrHn1/iZcLWslP/qUCu5b5THQEEEPBKgED2ajjoDAIIZLIAgZzJo8++I4CAVwIEslfDQWcQQCCTBQjkTB599h0BBLwSIJC9Gg46gwACmSxAIGfy6LPvCCDglQCB7NVw0BkEEMhkAQI5k0effUcAAa8ECGSvhoPOIIBAJgsQyJk8+uw7Agh4JUAgezUcdAYBBDJZgEDO5NFn3xFAwCsBAtmr4aAzCCCQyQIEciaPPvuOAAJeCRDIXg0HnUEAgUwWIJAzefTZdwQQ8EqAQPZqOOgMAghksgCBnMmjz74jgIBXAgSyV8NBZxBAIJMFCORMHn32HQEEvBIgkL0aDjqDAAKZLEAgZ/Los+8IIOCVAIHs1XDQGQQQyGQBAjmTR599RwABrwQIZK+Gg84ggEAmCxDImTz67DsCCHglQCB7NRx0BgEEMlmAQK7F6FdUVEhZWbkU//OblE39UCqKl9bi3VRFIDMEsho2lpz1d5aGbdaWnJxsycrKyowdr4O9JJAtETWMS8rKZMmYoVIx41vLd1ENgcwVyOqwiTQ9+hZpkJtLKFseBgSyBVSFqVNaWioFnz4jZW/fZfEOqiCAgArk7NlfmmzXS3I1lCFJK0AgpyUSKS+vkMKiIikcdaRI4SKLd1AFAQQCgcYtpNHAJ6VRXp5kZxPJ6Y4KAjmdkPm5zhsvWbpUSm89yKI2VRBAICqQe/o4adrYzCub+WRKzQIEssURQiBbIFEFgRQCBLL9oUEgW1gRyBZIVEGAQF7hY4BAtiAkkC2QqIIAgbzCxwCBbEFIIFsgUQUBAnmFjwEC2YKQQLZAogoCBPIKHwMEsgUhgWyBRBUECOQVPgYIZAtCAtkCiSoIEMgrfAwQyBaEBLIFElUQIJBX+BggkC0IXQdyToeNpcXwyeZ+/2ypWLpQ5vVrY9Gr6lVy1t5SWlz5gWQ1aCTmtigR8/wNKSuV4k+ekcW3HZ2yzaYnjpSG3ftW+3mWtrHshteKivJYewll/sCOUrF4bvzVnA4bSYthk2N/LymUeSe1Trnd/JG/SFb+msHPlz59mRS+eIPVfuff9bdkN2ttulMu8/uuLhVFS6ze17TvHdJwjxODumW/TJKFl+1m9b5opVb3zxNpkBe8NH/Q2lKxYHaVNrJX7yQtb/7But2s7BypKC+TRMeaGmj1SIEE7zP7P++YxtbbanbmM9Kg2wEp6ldI+b/TpfD5a6Xo3Yet27SpyDpkG6VYHQLZwsp1ILe46iPJ3WDHeE/mndDCBHPtbtFuNabQBHEsKFKVRcMPlJLJr1T7cdOT75S8vftbSFSvMk8DcfGc+A9yOm4iLUfEHr6kT8Obd2yTlO3m3zlDslu1D35e8MSFUvjcdVZ9aP1k5QeDhvG845pZva/pKXdL3l4nB3VLf/5UFl60vdX7opVajVka+8AzZd4pa5pAnlWljew2nSX/9t9q3W6iY00NRPe/bNYvsmDIulbba37ui9Jg655WdUs+fU4WjTjMqm66SgRyOqHKnxPIFlauAzn6C6bdKf54rCy+uZdFz2JVWj9eFjsjDos54yqf+bPo2ZpoeEQef7jwsl2l9IcPqrTdtN9oE8inVN+eOWOPl+DsuPoZ8rx+bes1kJsOeVzydu5dpa9zey/7NpBGrN4C2Zz5py1RW1N57v/ZPeehxVUTzYf3DlX33/K9VQPZjGWVbzxm+wmPydRvEQsu2DbtrqSrQCCnEyKQ7YVMTZeBnLvRrtLiiveq9cf2F1S/Hue03zD2fvMLNvfohsE0RbToNEbuhjsvq1Muc3vnWO2/fj3Papof1F103QFS8sWrad/n+gy59WPF5hFiDar0Y8ldJ0vRW/em7Vt9BHLaTpgK2S3aSv49lWfWi67sLiXfvm3zVmn9hJk6SgjORTf1kpJPxqZ9fzSQS6a8LIuGVX82S4vrJknuOlvH21qeb2uJHSGQ0w5NvAJnyBZWLgM5OtVQbL4mNtzu0FgADjMBOCVNAJp5xNaPV4bvvBPzpaJgQdI9ip6FL76ltxRPfDLtnvsWyNmt20v+6BlBv8v++sl8EG0Q3webDzBfAjn6oVLy7Vuy6Mq90o6FVohOh5T+/pXkdt4ieF/Fknk1ztWHjdsEstYN5qjNQ+a1FL58kxQ8fJZV/1JVIpDt+QhkCytXgZzVpKW0emB+/Jdq4SU7S8ubvlsWOD/IgjM2rrF3TQfeL3nLLlJJaUns7DhFaWbmDxsumz8sm/6NLDh787R77lsgt7zxG8lZa9Og3/P7t5eWt/4kWY1i88c20xY+BHLTAfdJ3p4nxezN1NLcPrlpxyGs0OrBhZLVuHlsf800RfRDdu7/6fRS9SmlaOO2gRy9plE243tZcOYm1n1MVpFAtucjkC2sXAVy42Oul8Y9zwl6sPTZa2TpkxebXzLzlXTZyobgl9X80qYq+aP/lOzWHWLvf+bKYKVCqpLddm1puOX+wY8rigul6J0H0+65b4FcNYCyghUTzcyHkpbS796VhVfsUeM+rexAzum0hbS84ct4Hxeev7WU/rpsRUra0TDXCiIXMzWQG/U8W5ocE1uZUvT+GFly+7E1trJcgfzbF7LgvG4WvUtdhUC25yOQLaxcBXLiL5h2pWn/eyVv2RK0gsfOl8IXhqfsYetHzXxqbmw+df6gLlJu/q2/uiw+BXKjfQZIE3PxMQjfH96PL1mrNDTz58FZYuqyUgM5YXqp+MPHzVLEo6yHq3GvS6XxEVcE9XUuX+f0JTdPWj9aGGujtNh8Q6p5lY1tILc2K3bCpX2Lb+sjxR8+Yd3PZBUJZHs+AtnCykUgZ5t/ADL/9l+DrZfPn2W+gsfW41ZZNlVSJHOPiS2xSlaigT5/4FpSPvdPi72xr+JTILe6Z7ZktYitz54/oIOUz/sr+HOrhxbFpy3mn9YpWEubqqzMQG5+yQRpsFlsrjjdcsBk/Y8ut4vOlwfXEEzYBy7925ljaWbK/U8XyFl5TaTFtZMkp2PlVNncPuYDv7zqRWL7IyhWk0C2FyOQLaxcBLJ+ddWvsFoKxpwjhS/dGO9JlV+y0zqbkPnDIpA7mkCOXfCqq+JNIJtVFcGFsGUlGki5m+4pLS59KxZ05p/Xmnd8i5S7v7ICWYNYAzkstf42k9vQnAkXJd3/hjv1lmanPx78rOzPb2XBWZtZBbLNMbLoqr2k5JuY7YoUAtlej0C2sKrzQE74+pq4QqDJUcOl0f/ODXqmKy8Wp1igX/UM+b8byM0GPSINdz0m5vGxuevw5iOqjFqyqZ9kw7oyAllv1tGVNGEpeuVWWfLQUIujrrJKiyvel9yNdgle0OV9uswvXmoI68SN2N4Yonde6kXf8FtIrTqbpDKBbC9IIFtY1XUg5266hzmri607LZ/zp8w/da0qvchqvpq0uvff+GuplnS1frzEfF2NXaXX23jL//ndYm/sq/hyhhxdJqa3GCd+E9CVKrpiRcvSpy6TpWOvTLqTKyOQW97yo+S0iy3Pq1j073LdFt/6CXNhd9mNJHOPMlMICevMWz2yxCxTi90RWXDvQCkcf2fS/Y8Gst7hWD5rWrxeTkezemXZ1EfRhLtkyT0D7A+UNDUJZHtKAtnCqq4DufVjJkhz7Jc7LRre09zyPK5aT/PvniXZLdvGfhEfGCKFr41MuTe6PCx8boSu3CifHZu/rqksVyCbZ1m0vOn7WAClvXX6L3PrdLtY/x83t04/X/3W6Zy1NpOWN36drquVP69h3r2+Azk6naAdnHdSK7NmOLbM0bbkrredtLjmE9vqNYZ+TXPIDbbYV5pf9Hp8O/qMjArzLJK6KASyvSKBbGFVl4GswagXompT9MxXz4ATS7OzzY0k2x4SCz9zQ4jeGJKqNB38qOTtEruqX/b3T7Jg6LK7+2royPIEst5FFtxNFmzIrI0+KvXa6GCFgFkpoKXgvtOk8I1R1XrTYtjnkttlq9pwxVYbmFUHiaU+A1nXC+u64bCk+sBJt2PR532kqxv+PFiPbtalJ5Z0F/Va3T/X3JnZKnhb6Y8fysJLY9MkK1oIZHtBAtnCqi4DuWnfUZK378BgqxWL5qT8eqlP82p0yPnx3iU7Y4neWKIV9UE+elaarETnWQsePc88We36tHu+XIFs1lDH1lLHSso76MyzN4JncCwrOmepN6wklmi/C8eNCNZQJyt53ftJdv4awY9Kp34sCy+ufFhTWL8+Azkabqk+UNMOgKkQ3f+l+g2ivNI2+v5G+/SXrOarBy8Vf/SELL61T7Xm0wVyTueu0vL6LyqPueV4yFWyfSKQbUY6VodAtrCqy0CO/oItGmaevjal+tPXwi5Ff6mXmq/0wS9kQomeQQWP7jzRnOHoozIjRW8e0JsIgqLPu9CH8ViU5QvkqiFSPme6mSM3DzlKKM0vfE0adN0v9qqZEw3mRhNKo/0HSRPzaNBlHa9xnXGVeXez/8me11Ffgdz40Iukce+rK72TPF/Egl8a97lWGh9ygdX+6/Mn9DkUNXmmC2R9b/Bo02WPRC2fN8MsMexo09Ua6xDI9oQEsoVVXQVytjmDyb/3n/gW0z1/oVGPwdLkhNti9VPdZqtX2c0jIcOLPlq1eNKLUvbTRMk260nzzLIoMXXCUnD/YCl8/XaLvTZrfJfj4ULacPYa60r+bT9XbsMEZPFHTwZ3penzkvN2O67KA4IWX99Tij+vPkceXXusdyHq3Yg1lSofduapdiWJT7WLPH5T29FHV9ZUkj3WMt3jN7PMc5pb3Vf5ONKKooIa1waH21/6yFlS/NnzVboTXWOd9gFK5qJfcPFvWVl43lZS+tuUKu3ZBHL2ah0lf1TlWu55J7eRioWVF5itDpyESgSyvRqBbGFVV4Gcf/sv5saPLrF8nTlV5p9e+XCcpN1IWB6nz7Yo+6v6w8/1MZv6sPfwKnmqXVr61KVmBcJVFnscq7K8gazvbbj94aIPRE9XCh4wHxCvVf+A0JsUWj1c+eD5eX1Xq/Ig/GTt6tdt/dod+JrnFM83zyuOlugZcrp+6c+TfWCmC2R98l5tHlAf9mPJHcdJ0XuPxLuVOAcd3CBkLljWVKJP/iszDx9acG7MIiw2gax18+/4PfboVi3mwt7cWjwEP1n/CGSboy1Wh0C2sKqTQE44g1lw/lZS9mvVM5hkXckfPd08ryL2tbHkyzdk0bXLvuYnqdz4cHN7rbnFNjGYdVpkyR3HS7lZdlWbsiKBHGzH3NARzJnvpf8aSeR5v8vOmJeYJVqpnk7XdOAD5sFJJ8S6m2JKI3FfsvKamhBfHH85MVBXpUBubpZFNjDLI2P7X/PF0XCHdelayxGV8/CJ+28byFmNW5gLkpVPDdQpJ516Wt5CINvLEcgWVnUSyBbboQoC/0UBAtl+VAlkCysC2QKJKgikECCQ7Q8NAtnCikC2QKIKAgTyCh8DBLIFIYFsgUQVBAjkFT4GCGQLQgLZAokqCBDIK3wMEMgWhASyBRJVECCQV/gYIJAtCAlkCySqIEAgr/AxQCBbEMYDeVSvYKE8BQEELAUaNJLcU5+Rpo0bS06O3S37li3/J6sRyBbDGgZy0VujJOfr1M+esGiKKghklEDZ5geZfyNyAIFsOeoEsgWUBnJBYaHMW7RYmj50nGSV1nwLq0WTVEHgPy9QYR6tuuT4h6VV82bSpFEjzpAtRpxAtkAqL6+QopKSIJQXLjb/OsOP70izKY9Ltvk33CgIIFBVoLxRc1ncrY9UbGj+ZZxmTYMwzmvQQLKzI7fPg5ZUgEC2ODDMEyulVD0zpQAACYtJREFUzDxtraS01IRykRQVV3/4t0UzVEEgowTyGjYwYZwnDXJzJcc8KMv82wWUNAIEsuUhUmFSucw8HLy0tCz4LwUBBGoWyDH/CEFubo4J42wTxqSxzfFCINsoLaujoaxny+b/a/EuqiKQmQJZ5gl/msOEsf34E8j2VtREAAEEnAoQyE55aRwBBBCwFyCQ7a2oiQACCDgVIJCd8tI4AgggYC9AINtbURMBBBBwKkAgO+WlcQQQQMBegEC2t6ImAggg4FSAQHbKS+MIIICAvQCBbG9FTQQQQMCpAIHslJfGEUAAAXsBAtneipoIIICAUwEC2SkvjSOAAAL2AgSyvRU1EUAAAacCBLJTXhpHAAEE7AUIZHsraiKAAAJOBQhkp7w0jgACCNgLEMj2VtREAAEEnAoQyE55aRwBBBCwFyCQ7a2oiQACCDgVIJCd8tI4AgggYC9AINtbURMBBBBwKkAgO+WlcQQQQMBegEC2t6ImAggg4FSAQHbKS+MIIICAvQCBbG9FTQQQQMCpAIHslJfGEUAAAXsBAtneipoIIICAUwEC2SkvjSOAAAL2AgSyvRU1EUAAAacCBLJTXhpHAAEE7AUIZHsraiKAAAJOBQhkp7w0jgACCNgLEMj2VtREAAEEnAoQyE55aRwBBBCwFyCQ7a2oiQACCDgVIJCd8tI4AgggYC9AINtbURMBBBBwKkAgO+WlcQQQQMBegEC2t6ImAggg4FSAQHbKS+MIIICAvQCBbG9FTQQQQMCpAIHslJfGEUAAAXsBAtneipoIIICAUwEC2SkvjSOAAAL2AgSyvRU1EUAAAacCBLJTXhpHAAEE7AUIZHsraiKAAAJOBQhkp7w0jgACCNgLEMj2VtREAAEEnAoQyE55aRwBBBCwFyCQ7a2oiQACCDgVIJCd8tI4AgggYC9AINtbURMBBBBwKkAgO+WlcQQQQMBegEC2t6ImAggg4FSAQHbKS+MIIICAvQCBbG9FTQQQQMCpAIHslJfGEUAAAXsBAtneipoIIICAUwEC2SkvjSOAAAL2AgSyvRU1EUAAAacCBLJTXhpHAAEE7AUIZHsraiKAAAJOBQhkp7w0jgACCNgLEMj2VtREAAEEnAoQyE55aRwBBBCwFyCQ7a2oiQACCDgVIJCd8tI4AgggYC9AINtbURMBBBBwKkAgO+WlcQQQQMBegEC2t6ImAggg4FSAQHbKS+MIIICAvQCBbG9FTQQQQMCpAIHslJfGEUAAAXsBAtneipoIIICAUwEC2SkvjSOAAAL2AgSyvRU1EUAAAacCBLJTXhpHAAEE7AUIZHsraiKAAAJOBQhkp7w0jgACCNgLEMj2VtREAAEEnAoQyE55aRwBBBCwFyCQ7a2oiQACCDgVIJCd8tI4AgggYC9AINtbURMBBBBwKkAgO+WlcQQQQMBegEC2t6ImAggg4FSAQHbKS+MIIICAvQCBbG9FTQQQQMCpAIHslJfGEUAAAXsBAtneipoIIICAUwEC2SkvjSOAAAL2AgSyvRU1EUAAAacCBLJTXhpHAAEE7AUIZHsraiKAAAJOBQhkp7w0jgACCNgLEMj2VtREAAEEnAoQyE55aRwBBBCwFyCQ7a2oiQACCDgVIJCd8tI4AgggYC9AINtbURMBBBBwKkAgO+WlcQQQQMBegEC2t6ImAggg4FSAQHbKS+MIIICAvQCBbG9FTQQQQMCpAIHslJfGEUAAAXsBAtneipoIIICAUwEC2SkvjSOAAAL2AgSyvRU1EUAAAacCBLJTXhpHAAEE7AUIZHsraiKAAAJOBQhkp7w0jgACCNgLEMj2VtREAAEEnAoQyE55aRwBBBCwFyCQ7a2oiQACCDgVIJCd8tI4AgggYC9AINtbURMBBBBwKkAgO+WlcQQQQMBegEC2t6ImAggg4FSAQHbKS+MIIICAvQCBbG9FTQQQQMCpAIHslJfGEUAAAXsBAtneipoIIICAUwEC2SkvjSOAAAL2AgSyvRU1EUAAAacCBLJTXhpHAAEE7AUIZHsraiKAAAJOBQhkp7w0jgACCNgLEMj2VtREAAEEnAoQyE55aRwBBBCwFyCQ7a2oiQACCDgVIJCd8tI4AgggYC9AINtbURMBBBBwKkAgO+WlcQQQQMBegEC2t6ImAggg4FSAQHbKS+MIIICAvQCBbG9FTQQQQMCpAIHslJfGEUAAAXsBAtneipoIIICAUwEC2SkvjSOAAAL2AgSyvRU1EUAAAacCBLJTXhpHAAEE7AUIZHsraiKAAAJOBQhkp7w0jgACCNgLEMj2VtREAAEEnAoQyE55aRwBBBCwFyCQ7a2oiQACCDgVIJCd8tI4AgggYC9AINtbURMBBBBwKkAgO+WlcQQQQMBegEC2t6ImAggg4FSAQHbKS+MIIICAvQCBbG9FTQQQQMCpAIHslJfGEUAAAXsBAtneipoIIICAUwEC2SkvjSOAAAL2AgSyvRU1EUAAAacCBLJTXhpHAAEE7AUIZHsraiKAAAJOBQhkp7w0jgACCNgLEMj2VtREAAEEnAoQyE55aRwBBBCwFyCQ7a2oiQACCDgVIJCd8tI4AgggYC9AINtbURMBBBBwKkAgO+WlcQQQQMBegEC2t6ImAggg4FSAQHbKS+MIIICAvQCBbG9FTQQQQMCpAIHslJfGEUAAAXsBAtneipoIIICAUwEC2SkvjSOAAAL2AgSyvRU1EUAAAacCBLJTXhpHAAEE7AUIZHsraiKAAAJOBQhkp7w0jgACCNgLEMj2VtREAAEEnAoQyE55aRwBBBCwFyCQ7a2oiQACCDgVIJCd8tI4AgggYC9AINtbURMBBBBwKkAgO+WlcQQQQMBegEC2t6ImAggg4FSAQHbKS+MIIICAvQCBbG9FTQQQQMCpAIHslJfGEUAAAXsBAtneipoIIICAUwEC2SkvjSOAAAL2AgSyvRU1EUAAAacCBLJTXhpHAAEE7AUIZHsraiKAAAJOBQhkp7w0jgACCNgLEMj2VtREAAEEnAoQyE55aRwBBBCwFyCQ7a2oiQACCDgVIJCd8tI4AgggYC9AINtbURMBBBBwKkAgO+WlcQQQQMBegEC2t6ImAggg4FSAQHbKS+MIIICAvQCBbG9FTQQQQMCpAIHslJfGEUAAAXsBAtneipoIIICAUwEC2SkvjSOAAAL2AgSyvRU1EUAAAacCBLJTXhpHAAEE7AUIZHsraiKAAAJOBQhkp7w0jgACCNgLEMj2VtREAAEEnAoQyE55aRwBBBCwF/h/DrhklpF3xcsAAAAASUVORK5CYII=;" vertex="1" parent="1">
          <mxGeometry x="22" y="30" width="356" height="633" as="geometry" />
        </mxCell>
        <mxCell id="xRkAMs9unRZzOuT88SSD-45" value="" style="rounded=1;whiteSpace=wrap;html=1;strokeWidth=3;dashed=1;strokeColor=#C2C2C2;fillColor=none;" vertex="1" parent="1">
          <mxGeometry x="45" y="230" width="310" height="50" as="geometry" />
        </mxCell>
        <mxCell id="xRkAMs9unRZzOuT88SSD-47" value="&lt;font style=&quot;font-size: 17px;&quot;&gt;Aquí se mostrará el nombre actual del usuario.&lt;br&gt;&lt;/font&gt;" style="rounded=1;whiteSpace=wrap;html=1;strokeWidth=3;" vertex="1" parent="1">
          <mxGeometry x="420" y="50" width="200" height="70" as="geometry" />
        </mxCell>
        <mxCell id="xRkAMs9unRZzOuT88SSD-51" value="" style="rounded=1;whiteSpace=wrap;html=1;strokeWidth=3;dashed=1;strokeColor=#C2C2C2;fillColor=none;" vertex="1" parent="1">
          <mxGeometry x="60" y="280" width="280" height="110" as="geometry" />
        </mxCell>
        <mxCell id="xRkAMs9unRZzOuT88SSD-55" value="&lt;font style=&quot;font-size: 17px;&quot;&gt;En estos dos campos, se introducirán el nombre y la contraseña nuevos para el usuario. El campo de la contraseña es de tipo TextPassword.&lt;br&gt;&lt;/font&gt;" style="rounded=1;whiteSpace=wrap;html=1;strokeWidth=3;" vertex="1" parent="1">
          <mxGeometry x="468" y="170" width="264" height="140" as="geometry" />
        </mxCell>
        <mxCell id="xRkAMs9unRZzOuT88SSD-56" value="&lt;font style=&quot;font-size: 17px;&quot;&gt;Con este botón, se actualizará la entrada de la tabla de CuentasUsuarios del usuario, y el nombre de su tabla de movimientos. Para que funcione, ninguno de los dos campos pueden estar vacíos.&lt;br&gt;&lt;/font&gt;" style="rounded=1;whiteSpace=wrap;html=1;strokeWidth=3;" vertex="1" parent="1">
          <mxGeometry x="386" y="330" width="314" height="160" as="geometry" />
        </mxCell>
        <mxCell id="xRkAMs9unRZzOuT88SSD-57" value="" style="endArrow=none;html=1;rounded=0;exitX=1;exitY=0.5;exitDx=0;exitDy=0;strokeWidth=3;" edge="1" target="xRkAMs9unRZzOuT88SSD-56" parent="1" source="xRkAMs9unRZzOuT88SSD-58">
          <mxGeometry width="50" height="50" relative="1" as="geometry">
            <mxPoint x="316" y="515" as="sourcePoint" />
            <mxPoint x="400" y="515" as="targetPoint" />
          </mxGeometry>
        </mxCell>
        <mxCell id="xRkAMs9unRZzOuT88SSD-58" value="" style="rounded=1;whiteSpace=wrap;html=1;strokeWidth=3;dashed=1;strokeColor=#C2C2C2;fillColor=none;" vertex="1" parent="1">
          <mxGeometry x="55" y="400" width="290" height="60" as="geometry" />
        </mxCell>
        <mxCell id="xRkAMs9unRZzOuT88SSD-46" value="" style="endArrow=none;html=1;rounded=0;strokeWidth=3;exitX=1;exitY=0.5;exitDx=0;exitDy=0;" edge="1" target="xRkAMs9unRZzOuT88SSD-47" parent="1" source="xRkAMs9unRZzOuT88SSD-45">
          <mxGeometry width="50" height="50" relative="1" as="geometry">
            <mxPoint x="336" y="194.5" as="sourcePoint" />
            <mxPoint x="420" y="194.5" as="targetPoint" />
          </mxGeometry>
        </mxCell>
        <mxCell id="xRkAMs9unRZzOuT88SSD-54" value="" style="endArrow=none;html=1;rounded=0;strokeWidth=3;exitX=1.024;exitY=0.542;exitDx=0;exitDy=0;exitPerimeter=0;" edge="1" target="xRkAMs9unRZzOuT88SSD-55" parent="1" source="xRkAMs9unRZzOuT88SSD-51">
          <mxGeometry width="50" height="50" relative="1" as="geometry">
            <mxPoint x="830" y="200" as="sourcePoint" />
            <mxPoint x="380" y="355" as="targetPoint" />
          </mxGeometry>
        </mxCell>
      </root>
    </mxGraphModel>
  </diagram>
</mxfile>
